<svg width="711" height="752" viewBox="0 0 711 752" fill="none" xmlns="http://www.w3.org/2000/svg">
<path d="M551.637 37.9704C548.064 37.2397 544.469 36.6043 540.903 35.8432C540.267 35.7075 539.565 35.5272 538.912 35.5189C538.26 35.5107 537.608 35.5189 536.957 35.5189C536.106 35.5189 535.251 35.4906 534.401 35.454C533.174 35.4013 531.897 35.0217 530.701 34.7471C529.418 34.4527 528.102 34.2931 526.823 33.9981C526.361 33.8914 525.89 33.7914 525.432 33.677C525.151 33.6067 524.844 33.484 524.553 33.476C524.264 33.4679 523.931 33.3462 523.648 33.2717C523.495 33.2314 523.335 33.2151 523.181 33.1809C523.062 33.1543 523.073 33.0674 522.919 33.0674" stroke="#15452E" stroke-width="3" stroke-linecap="round"/>
<path d="M524.787 32.6588C524.537 32.5412 524.25 32.5716 523.999 32.4513C523.625 32.2727 523.226 32.0959 522.828 31.9843C522.58 31.9148 522.381 31.7547 522.147 31.6795C521.843 31.5819 521.472 31.5505 521.155 31.5044C520.22 31.3687 519.312 31.0158 518.366 30.9661C518.141 30.9542 517.82 30.8395 517.633 30.7326C517.499 30.6561 517.339 30.6697 517.198 30.6029C517.03 30.5232 516.953 30.4245 517.186 30.5575C517.342 30.647 517.55 30.7414 517.724 30.791C518.172 30.9191 517.796 30.9344 517.523 30.9012C517.342 30.8793 517.071 30.8327 516.894 30.778C516.8 30.7493 516.707 30.7459 516.615 30.7196C516.553 30.7021 517.099 30.7255 517.198 30.7456C517.753 30.8573 518.315 30.9565 518.865 31.0861C519.424 31.2174 519.951 31.4547 520.506 31.6017C521 31.7325 521.51 31.8147 521.982 32.0135C522.455 32.2128 522.955 32.4695 523.444 32.6134C523.521 32.636 523.751 32.7323 523.794 32.808C523.861 32.9247 523.79 33.1394 523.645 33.1809C523.291 33.2822 522.924 32.9618 522.627 32.8209C522.437 32.7308 522.114 32.6863 521.962 32.568C521.867 32.4938 521.53 32.2578 521.401 32.2502C520.91 32.2213 520.528 31.6665 520.059 31.6665" stroke="#15452E" stroke-width="3" stroke-linecap="round"/>
<path d="M599.543 283.997C599.135 286.447 597.936 288.373 597.936 290.962C597.936 293.105 597.936 295.248 597.936 297.391C597.936 299.81 597.943 303.061 596.626 305.13C595.793 306.44 595.296 308.157 594.721 309.595C594.041 311.297 592.71 313.008 592.162 314.655C591.387 316.978 591.347 319.48 590.167 321.709C587.939 325.919 588.267 319.642 588.888 317.78C590.844 311.91 594.947 307.051 597.4 301.41C598.399 299.112 598.901 296.364 599.007 293.879C599.121 291.219 600.544 288.821 600.615 286.14C600.665 284.218 601.329 282.881 601.657 281.08C602.186 278.169 601.016 286.978 600.347 289.861C599.459 293.685 598.602 297.716 597.162 301.38C596.312 303.543 594.721 305.748 594.721 308.107" stroke="#15452E" stroke-width="3" stroke-linecap="round"/>
<path d="M556.423 39.955C555.649 39.955 555.074 39.603 554.367 39.3583C554.182 39.2942 554.049 39.2176 553.851 39.1929C553.608 39.1626 553.371 39.1296 553.154 39.0211" stroke="#15452E" stroke-width="3" stroke-linecap="round"/>
<path d="M599.639 268.191C599.639 274.907 599.505 280.504 598.066 286.978C597.013 291.716 597.16 297.855 595.006 302.162" stroke="#15452E" stroke-width="3" stroke-linecap="round"/>
<path d="M161.028 67.995C160.362 71.9887 157.259 75.9877 155.399 79.4428C154.268 81.5423 152.902 83.3926 151.772 85.532C150.663 87.6347 148.095 89.3679 147.28 91.4859C146.574 93.3209 145.467 94.9979 144.222 96.5197C142.787 98.273 142.184 100.635 140.812 102.311C138.934 104.606 135.916 108.523 135.21 111.35" stroke="#15452E" stroke-width="3" stroke-linecap="round"/>
<path d="M156.157 105.992C156.157 120.209 156.157 134.426 156.157 148.644C156.157 150.249 156.157 151.855 156.157 153.461C156.157 155.252 155.387 156.668 155.209 158.359C155.04 159.973 154.246 161.514 154.208 163.095C154.17 164.706 153.277 165.87 153.234 167.371C153.024 174.703 153.234 182.066 153.234 189.401C153.234 195.373 153.234 201.345 153.234 207.317C153.234 211.829 153.898 216.988 152.747 221.362C151.817 224.896 151.846 228.821 150.311 232.161C149.525 233.871 149.676 235.937 149.12 237.763C148.45 239.964 148.362 242.329 148.362 244.61C148.362 247.803 148.362 250.997 148.362 254.19C148.362 259.675 148.362 265.16 148.362 270.645" stroke="#15452E" stroke-width="7" stroke-linecap="round"/>
<path d="M170.727 351.824C170.841 355.008 172.193 357.828 173.484 360.681C174.68 363.325 175.402 366.112 177.031 368.522C178.798 371.134 180.031 374.389 181.934 376.836C182.68 377.795 182.921 379.173 183.539 380.271C184.205 381.456 185.027 382.388 185.55 383.638C186.692 386.366 188.438 388.594 189.526 391.365C190.506 393.859 192.258 396.342 193.706 398.595C194.63 400.032 195.553 401.559 196.35 403.069C196.821 403.961 197.415 405.664 198.158 406.3C198.834 406.88 199.436 408.127 199.807 408.944C200.218 409.847 201.293 410.258 201.863 411.113C202.721 412.4 203.442 413.934 204.258 415.27C204.936 416.379 206.518 418.072 206.518 419.338" stroke="#15452E" stroke-width="7" stroke-linecap="round"/>
<path d="M54.4086 334.335C52.2971 335.787 52.5731 341.194 52.0588 343.509C51.6193 345.486 51.9684 347.857 51.9684 349.881C51.9684 352.838 51.719 356.166 53.1885 358.738" stroke="#15452E" stroke-width="7" stroke-linecap="round"/>
<path d="M303.286 627.015C302.305 627.26 304.65 637.464 304.95 638.747C305.798 642.382 305.382 646.501 305.382 650.229C305.382 655.389 305.816 660.827 303.885 665.656" stroke="#15452E" stroke-width="7" stroke-linecap="round"/>
<path d="M390.451 617.43C390.277 620.901 387.333 624.192 385.508 626.999C383.739 629.721 381.098 631.715 378.752 633.905C377.163 635.388 375.041 636.48 373.677 638.165C372.961 639.049 372.067 639.91 371.58 640.944C371.133 641.894 371.009 642.954 370.382 643.789" stroke="#15452E" stroke-width="7" stroke-linecap="round"/>
<path d="M119.285 661.938C119.285 668.177 115.627 673.425 113.766 679.215C112.773 682.304 111.954 686.052 111.633 689.266C111.386 691.736 111.576 694.912 110.86 697.265C108.226 705.918 107.155 714.823 103.235 723.1C100.477 728.921 100.593 736.451 96.729 741.604" stroke="#15452E" stroke-width="7" stroke-linecap="round"/>
<path d="M521.062 34.554C520.199 33.7777 518.988 32.6683 517.943 32.2832C517.395 32.0813 515.938 31.6198 515.684 31.112" stroke="#15452E" stroke-width="7" stroke-linecap="round"/>
<path d="M410.641 48.9312C413.715 48.9312 417.374 49.2358 420.028 50.7106C423.481 52.6289 426.099 55.4946 429.416 57.3373C430.793 58.1019 432.287 59.5967 433.711 60.5279C434.918 61.3172 436.857 63.1364 438.129 63.2891C439.673 63.4743 441.109 65.4226 442.67 65.9275C444.83 66.6266 446.621 68.3138 448.56 69.4863C455.295 73.5583 462.063 77.3482 468.747 81.3898C470.613 82.5181 472.121 83.8369 473.84 85.1941C481.074 90.9054 488.26 96.6065 495.438 102.374C498.676 104.977 502.706 107.463 505.194 110.781C507.633 114.033 510.33 116.932 512.802 120.168C518.044 127.03 521.457 135.182 526.485 141.951C528.733 144.976 531.215 149.339 532.683 152.75C534.989 158.11 538.23 163.021 541.089 168.089C542.991 171.461 545.759 174.449 547.041 178.152C548.386 182.039 548.794 186.211 549.802 190.179C551.065 195.155 551.996 200.3 553.115 205.334C554.465 211.41 556.206 218.069 556.428 224.294C556.598 229.04 556.494 233.842 556.428 238.59C556.339 245.002 553.364 251.968 550.906 257.796C542.577 277.547 541.708 299.124 535.198 319.338C533.779 323.745 531.481 328.568 529.492 332.776C527.706 336.553 526.456 340.601 524.951 344.495C522.969 349.626 521.638 357.047 521.638 362.596" stroke="#022601" stroke-width="14" stroke-linecap="round"/>
<path d="M522.742 368.118C517.893 373.341 514.692 380.641 510.87 386.649C506.699 393.203 502.973 400.029 498.813 406.59C493.128 415.555 488.153 424.931 482.43 433.833C477.985 440.747 473.835 447.729 468.655 454.204C465.98 457.547 463.032 460.694 460.77 464.328C459.407 466.52 457.3 468.359 456.475 470.832" stroke="#022601" stroke-width="14" stroke-linecap="round"/>
<path d="M330.015 572.994C330.015 569.577 330.883 564.975 333.022 562.226C333.737 561.307 333.517 559.2 332.531 558.636C331.817 558.229 332.224 555.54 332.224 554.771" stroke="#022601" stroke-width="14" stroke-linecap="round"/>
<path d="M429.544 57.637C428.231 56.8869 427.239 55.6893 425.852 55.0452C425.025 54.6613 423.97 54.3938 423.07 54.2486C422.65 54.1809 422.001 54.1417 421.635 53.9389C420.661 53.3975 419.72 52.7367 418.74 52.1246C417.741 51.5002 416.573 51.1273 415.636 50.4684C415.003 50.0224 414.593 49.7991 414.069 49.2167C413.704 48.811 413.16 48.0788 412.533 48.0788C411.951 48.0788 411.463 47.4302 410.883 47.3961C410.353 47.3649 409.857 47.0531 409.46 46.6565C409.263 46.4593 409.205 46.2363 409.005 46.0812C408.804 45.9247 408.414 45.8175 408.265 45.6324C407.977 45.272 407.382 45.2267 407.102 44.779C406.576 43.9372 405.368 43.8012 404.567 43.3567C404.302 43.2094 403.394 43.1319 403.259 42.8952C403.104 42.6247 402.797 42.8183 402.867 42.8383C403.094 42.9031 403.26 43.0589 403.486 43.0722C403.704 43.085 404.362 43.5204 404.574 43.6411C405.012 43.8917 405.47 44.0533 405.876 44.3239" stroke="#022601" stroke-width="14" stroke-linecap="round"/>
<path d="M405.742 52.6592C405.319 52.6592 404.897 52.6433 404.498 52.4881C403.87 52.244 403.248 51.9696 402.582 51.8411C402.433 51.8123 402.323 51.7039 402.173 51.6825C401.906 51.6444 401.578 51.4451 401.351 51.3068C400.849 51.0016 400.351 50.6844 399.806 50.4616C399.306 50.2572 398.712 50.1098 398.266 49.823C398.123 49.7309 397.912 49.6712 397.786 49.5705C397.705 49.5058 397.57 49.3999 397.477 49.3535" stroke="#022601" stroke-width="3" stroke-linecap="round"/>
<path d="M161.359 67.7754C156.694 65.4428 151.87 63.6674 147.052 61.6865C143.848 60.3693 140.721 59.1479 137.688 57.4969C136.59 56.899 135.393 56.5936 134.315 55.9467C132.657 54.9519 130.976 53.9975 129.316 53.007C128.049 52.2511 126.88 51.4157 125.706 50.5281C124.886 49.9087 123.928 49.5608 123.066 49.0199C121.299 47.9106 119.383 46.9556 117.683 45.7729C117.043 45.3281 116.395 45.0481 115.832 44.4951C115.297 43.9687 114.755 43.6467 114.128 43.2661C112.914 42.5287 111.593 41.888 110.455 41.1294" stroke="#012500" stroke-width="3" stroke-linecap="round"/>
<path d="M341.498 47.3426C341.498 46.1343 341.576 44.9293 341.341 43.7427C341.234 43.2007 341.114 42.6612 341.008 42.1194C340.956 41.8575 340.87 41.5612 340.87 41.2947C340.87 41.1769 340.87 41.0591 340.87 40.9413C340.87 40.9279 340.87 40.8446 340.87 40.9195C340.87 41.2186 340.871 41.5145 340.909 41.8118C341.02 42.666 340.949 43.5661 340.949 44.4278C340.949 45.7005 340.949 46.9732 340.949 48.2459" stroke="#245523" stroke-width="3" stroke-linecap="round"/>
<path d="M340.963 37.0382C340.963 36.6367 341.229 36.3096 341.229 35.9125C341.229 35.5235 341.229 35.1344 341.229 34.7453" stroke="#245523" stroke-width="3" stroke-linecap="round"/>
<path d="M340.494 33.7022C340.38 33.7136 340.275 33.7976 340.181 33.8544C339.998 33.964 339.807 34.0344 339.615 34.1229C339.355 34.2418 339.102 34.3795 338.838 34.4876C338.645 34.5666 338.43 34.6097 338.225 34.6464C337.969 34.6923 337.771 34.7949 337.527 34.8791C337.062 35.0398 336.603 35.2206 336.167 35.4429C335.635 35.7136 335.079 35.8017 334.504 35.9217C333.66 36.0982 332.808 36.2395 331.963 36.4206C330.483 36.7377 329.001 36.9263 327.589 37.4879C327.459 37.5394 327.076 37.7075 327.208 37.6624C327.827 37.4509 328.411 37.1331 329.025 36.9039C329.779 36.6222 330.383 36.015 331.153 35.7584C331.552 35.6254 331.934 35.4756 332.336 35.3534C332.816 35.2079 333.331 35.1631 333.818 35.0402C334.597 34.8434 335.4 34.7912 336.185 34.6442C336.804 34.5281 337.375 34.2686 337.959 34.0468C338.563 33.8174 339.203 33.767 339.827 33.6217C340.056 33.5684 340.299 33.5725 340.532 33.5434C340.612 33.5334 340.676 33.489 340.615 33.5814" stroke="#245523" stroke-width="3" stroke-linecap="round"/>
<path d="M330.7 34.0813C326.95 35.0429 323.288 36.2047 319.487 36.9649C317.258 37.4108 315.031 37.8609 312.806 38.3553C309.766 39.0309 306.741 39.605 303.64 40.2863C301.985 40.6498 300.587 41.4951 298.98 41.9598C297.015 42.5278 294.93 42.694 292.93 43.1184C288.887 43.9759 284.838 44.7621 280.803 45.6673C276.385 46.6585 271.911 47.4226 267.479 48.3579C260.587 49.8121 253.828 51.7585 246.92 53.1339C236.814 55.1461 226.633 56.7773 216.539 58.8754C212.572 59.7 208.608 60.5095 204.631 61.2956C200.079 62.1955 195.345 62.1529 190.844 63.2266C184.671 64.6989 178.37 65.984 172.203 67.2174" stroke="#245523" stroke-width="24" stroke-linecap="round"/>
<path d="M340.193 21.1816C342.292 21.1816 344.391 21.1816 346.49 21.1816C347.622 21.1816 348.823 21.2443 349.864 20.7818C351.068 20.2465 353.453 20.7318 354.761 20.7318C357.251 20.7318 359.743 20.7028 362.233 20.7318C363.624 20.748 364.858 21.1816 366.294 21.1816C367.78 21.1816 369.267 21.1816 370.754 21.1816C377.885 21.1816 385.031 21.4138 392.145 21.9063C395.702 22.1526 399.397 21.7305 402.915 22.3311C405.551 22.7813 408.201 23.0413 410.836 23.4806C414.705 24.1254 418.465 24.3302 422.381 24.3302C426.699 24.3302 430.867 24.7445 435.163 24.9924C441.369 25.3504 447.236 26.6287 453.305 27.8161C455.059 28.1593 456.788 28.6169 458.54 28.9531C461.115 29.4473 463.681 29.3182 466.249 29.7402C469.888 30.3385 473.493 31.2686 477.156 31.7019C479.454 31.9737 481.953 31.9654 484.203 32.439C486.958 33.0191 489.777 33.4843 492.549 33.9883C494.338 34.3135 502.345 33.7916 502.345 36.2498" stroke="#245523" stroke-width="24" stroke-linecap="round"/>
<path d="M91.0021 751L37.5021 720.5C68.0021 653.5 97.0021 568 97.0021 536.5C114.502 456 -2.49786 385 4.00208 337V266.5C14.5021 183 92.5021 61.5 109.502 40C133.002 33 272.502 10 292.502 6.00001C354.502 -2 468.202 6.60001 479.002 11C512.946 11 553.469 36.7824 561.005 39.7271C561.339 39.8175 561.671 39.9085 562.002 40C561.797 40 561.461 39.9054 561.005 39.7271C499.357 23.0269 393.838 25.5162 363.502 28.5C314.502 37.5 177.502 58 162.002 66C154.502 85.5 87.5021 170.5 59.5021 266.5C54.5021 283.643 54.1021 351.2 54.5021 356C57.8355 396 102.002 443 121.502 470.5C150.502 493.5 146.502 554.7 144.502 563.5C144.502 599.5 97.0021 742 91.0021 751Z" fill="#022601"/>
<path d="M334.502 547L297.502 693C297.502 693 307.502 692 320.502 670C338.502 645.5 459.002 479.5 503.502 402.5C545.502 336 562.002 229 555.002 209C543.502 117.5 441.002 70 434.002 66.5L407.502 54L395.502 50L466.002 95.5C505.002 154.5 517.002 250.5 474.002 323.5C461.202 368.3 375.669 491.167 334.502 547Z" fill="#022601"/>
<g filter="url(#filter0_d_3_439)">
<path d="M341.502 33.5L162.502 65.5C155.702 73.1 150.002 215.5 150.002 263.5C150.002 325.5 192.502 394 207.502 417C238.502 439 310.502 565 306.502 660C313.702 653.2 326.169 582.5 331.502 548C341.502 466 263.502 338 263.502 315.5C219.502 237.9 297.169 105.833 341.502 49.5V33.5Z" fill="url(#paint0_linear_3_439)"/>
</g>
<path d="M54.5022 293C66.0022 199.5 131.502 120 161.502 69C159.836 82.3333 156.302 109.5 155.502 111.5C154.702 113.5 151.169 201 149.502 244.5C146.302 272.9 161.502 355.5 207.002 415.5C227.502 424 334.002 587 298.002 693L372.002 640C446.002 558 612.502 316 600.002 283C605.602 259 595.502 73 520.502 34L564.502 39.5C664.502 75.5 731.502 134.5 705.002 268.5C689.198 348.415 428.502 649.5 288.002 726.5C273.002 726.5 136.002 745.5 90.5022 751C106.002 722 130.502 634.5 140.502 587C150.502 539.5 146.502 497 124.002 473.5C111.602 457.5 60.5022 400 54.5022 363V293Z" fill="#15452E"/>
<path d="M354.002 28.5L341.002 33L342.002 49.5C349.002 36.5 348.002 34 368.002 40.5C379.502 40.5 487.502 80.5 523.002 137C577.502 192 566.502 313 476.002 448C464.197 465.609 358.002 616.833 306.002 690L368.002 643.5C428.002 581 590.502 348 590.502 317C620.002 261 590.502 28.5 497.502 28.5H354.002Z" fill="url(#paint1_linear_3_439)"/>
<defs>
<filter id="filter0_d_3_439" x="146.002" y="33.5" width="199.5" height="634.5" filterUnits="userSpaceOnUse" color-interpolation-filters="sRGB">
<feFlood flood-opacity="0" result="BackgroundImageFix"/>
<feColorMatrix in="SourceAlpha" type="matrix" values="0 0 0 0 0 0 0 0 0 0 0 0 0 0 0 0 0 0 127 0" result="hardAlpha"/>
<feOffset dy="4"/>
<feGaussianBlur stdDeviation="2"/>
<feComposite in2="hardAlpha" operator="out"/>
<feColorMatrix type="matrix" values="0 0 0 0 0 0 0 0 0 0 0 0 0 0 0 0 0 0 0.25 0"/>
<feBlend mode="normal" in2="BackgroundImageFix" result="effect1_dropShadow_3_439"/>
<feBlend mode="normal" in="SourceGraphic" in2="effect1_dropShadow_3_439" result="shape"/>
</filter>
<linearGradient id="paint0_linear_3_439" x1="245.752" y1="33.5" x2="245.752" y2="660" gradientUnits="userSpaceOnUse">
<stop stop-color="#245523"/>
<stop offset="1" stop-color="#50BB4E"/>
</linearGradient>
<linearGradient id="paint1_linear_3_439" x1="453.749" y1="28.5" x2="453.749" y2="690" gradientUnits="userSpaceOnUse">
<stop stop-color="#245523"/>
<stop offset="1" stop-color="#50BB4E"/>
</linearGradient>
</defs>
</svg>
